<svg xmlns="http://www.w3.org/2000/svg" viewBox="0 0 609.86 204.59"><defs><style>.cls-1{fill:#5d3b00;}.cls-2{fill:#946c2b;}.cls-3{fill:#dbcba6;}.cls-4{fill:#d0b174;}.cls-5{fill:#b09538;}.cls-6{fill:none;}</style></defs><g id="レイヤー_2" data-name="レイヤー 2"><g id="レイヤー_1-2" data-name="レイヤー 1"><path class="cls-1" d="M251.76,58.84a15.09,15.09,0,0,0-2.13-4.71c-1.1-1.42-1.84-1.71-4.6-1.71h-4.66c-1.75,0-1.94.13-1.94,1.87V66.34h6.11c3.44,0,3.82-.75,4.63-4.54H251V73.58h-1.92c-.63-3.73-1.3-4.62-4.58-4.62h-6.11v8.88c0,4.89.4,5.21,5.29,5.57v1.84H227.18V83.41c4.21-.36,4.7-.7,4.7-5.57V57.38c0-4.78-.5-5.14-4.7-5.51V50h17.95c4.73,0,7.13,0,8-.11,0,1.28.3,5.64.58,8.63Z"/><path class="cls-1" d="M269.81,85.25V83.41c4.23-.41,4.71-.7,4.71-5.27V57.2c0-4.59-.51-4.94-4.71-5.33V50h16v1.83c-4.22.42-4.71.74-4.71,5.33V78.14c0,4.55.46,4.82,4.71,5.27v1.84Z"/><path class="cls-1" d="M340.07,51.87c-3.36.42-4.43,1.06-4.59,3.52-.12,2-.26,4-.26,8.8V85.81h-2.69l-22.8-27.52V71c0,4.77.13,7,.27,8.57.18,2.52,1.39,3.61,5.36,3.86v1.84H302V83.41c3.18-.27,4.51-1.08,4.8-3.66a82.84,82.84,0,0,0,.31-8.79V57.78a5.89,5.89,0,0,0-1.12-4.1c-1-1.35-2.24-1.57-4.65-1.81V50h9.71l21.46,25.13v-11c0-4.83-.08-6.8-.25-8.67-.16-2.37-1.16-3.37-5.6-3.65V50h13.38Z"/><path class="cls-1" d="M373,85.25V83.41c3.45-.47,3.6-1,2.85-3.28-.6-1.79-1.54-4.33-2.47-6.93h-11c-.69,2-1.47,4-2.08,5.9-1.16,3.45-.05,3.88,4.29,4.31v1.84H351.5V83.41c3.41-.43,4.28-.88,6.14-5.55l11.25-28.14,2.29-.44c3.45,9.37,7.15,19.22,10.64,28.38,1.91,4.92,2.39,5.32,6,5.75v1.84Zm-5-26.94c-1.63,4.17-3.25,8.25-4.7,12.32h9.14Z"/><path class="cls-1" d="M438.49,51.87c-3.36.42-4.42,1.06-4.58,3.52-.13,2-.27,4-.27,8.8V85.81H431l-22.8-27.52V71c0,4.77.13,7,.28,8.57.18,2.52,1.38,3.61,5.35,3.86v1.84H400.45V83.41c3.18-.27,4.51-1.08,4.81-3.66a83.78,83.78,0,0,0,.3-8.79V57.78a5.84,5.84,0,0,0-1.12-4.1c-1-1.35-2.24-1.57-4.65-1.81V50h9.71L431,75.17v-11c0-4.83-.08-6.8-.24-8.67-.16-2.37-1.17-3.37-5.61-3.65V50h13.38Z"/><path class="cls-1" d="M487.1,76.16a73.83,73.83,0,0,1-3,8.53,47.74,47.74,0,0,1-9.94,1.37c-14,0-20.23-9.1-20.23-18,0-11.15,8.51-18.76,21.2-18.76a56.9,56.9,0,0,1,10.24,1.28c.26,2.51.63,6.25,1,8.75l-2,.38c-1.12-4-2.63-6.1-5.46-7.23a14,14,0,0,0-5.05-.86c-8.24,0-12.45,6.58-12.45,15.23,0,10.1,5.2,16.82,13.09,16.82,4.89,0,7.81-2.44,10.68-8.21Z"/><path class="cls-1" d="M503.6,85.25V83.41c4.23-.41,4.71-.7,4.71-5.27V57.2c0-4.59-.51-4.94-4.71-5.33V50h16v1.83c-4.21.42-4.71.74-4.71,5.33V78.14c0,4.55.46,4.82,4.71,5.27v1.84Z"/><path class="cls-1" d="M553.77,85.25V83.41c3.46-.47,3.61-1,2.86-3.28-.61-1.79-1.55-4.33-2.48-6.93h-11c-.68,2-1.47,4-2.08,5.9-1.16,3.45-.05,3.88,4.29,4.31v1.84H532.32V83.41c3.41-.43,4.28-.88,6.14-5.55l11.25-28.14,2.3-.44c3.44,9.37,7.14,19.22,10.63,28.38,1.91,4.92,2.4,5.32,6,5.75v1.84Zm-5-26.94c-1.62,4.17-3.25,8.25-4.7,12.32h9.14Z"/><path class="cls-1" d="M609.86,75.9c-.39,2.11-2,7.81-2.45,9.35H581.12V83.41c4.83-.38,5.27-.72,5.27-5.29V57.18c0-4.57-.55-4.94-4.71-5.31V50h16.07v1.83c-4.26.4-4.82.73-4.82,5.31V78.56c0,3.09.22,4.23,3.23,4.29.1,0,3.08.06,3.33.06,3,0,3.78-.54,5.07-2a21.06,21.06,0,0,0,3.37-5.61Z"/><path class="cls-1" d="M274,128c-1-3.5-2.54-7.31-7.56-7.31a5.15,5.15,0,0,0-5.38,5.49c0,3.24,2.15,5.06,6.82,7.43,6,3,9.42,5.74,9.42,11,0,6.14-5.18,10.69-12.65,10.69a28.06,28.06,0,0,1-8.82-1.72c-.37-1.34-1.19-6.29-1.57-9l2-.47c1.08,3.49,3.89,9,9.31,9,3.51,0,5.65-2.29,5.65-5.77s-2-5.29-6.67-7.78c-5.66-3.06-9.16-5.73-9.16-11.15s4.29-9.9,12.06-9.9a38,38,0,0,1,7.54,1c.22,2,.54,4.58,1,8Z"/><path class="cls-1" d="M323.1,145.5c-.3,1.44-1.79,7.44-2.3,9H293.32V152.7c5-.45,5.31-.8,5.31-5.31V126.45c0-4.68-.63-5-4.45-5.33v-1.83h17.24c5.49,0,7.45-.06,8.17-.11.06,1.11.31,5.42.53,8.6l-1.95.27a14.26,14.26,0,0,0-2.08-4.71c-.94-1.33-1.83-1.68-4.76-1.68h-4.09c-1.93,0-2.11.14-2.11,1.88v11.55h5.56c3.39,0,3.84-.81,4.6-4.6h1.95v11.75h-1.95c-.82-4-1.25-4.58-4.65-4.58h-5.51v9.83c0,3.75.49,4.61,3.63,4.66H313c3.12,0,3.84-.41,5-1.86a24.77,24.77,0,0,0,3.17-5.26Z"/><path class="cls-1" d="M372,154.86c-.46,0-1.09,0-1.76-.07-5.85-.31-7.9-1.62-9.78-4.27-2.12-2.91-3.82-6.25-5.62-9.33-.91-1.56-1.65-1.88-3.75-1.88l-1.36,0v8.12c0,4.46.56,4.8,4.71,5.27v1.83H338.62v-1.83c4.25-.45,4.71-.81,4.71-5.27v-21c0-4.39-.56-4.83-4.71-5.22v-1.83h15c4.52,0,7.25.52,9.41,2a8.2,8.2,0,0,1,3.65,7.18c0,4.77-3.12,7.45-6.84,9,.86,1.64,3.05,5.2,4.68,7.67a44.31,44.31,0,0,0,4.17,5.62,7.06,7.06,0,0,0,3.61,2.42ZM351.6,137.18c2.5,0,4.29-.39,5.54-1.46,1.9-1.54,2.69-3.63,2.69-6.45,0-5.76-3.49-7.84-6.92-7.84a4.14,4.14,0,0,0-2.63.54c-.41.34-.54,1-.54,2.16v13.05Z"/><path class="cls-1" d="M419.11,121.12c-3.59.42-4.62.91-6.64,6-1.6,4-7.85,19-11.38,28h-2.57c-2.1-5.8-8.3-22.31-10.86-28.84-1.63-4-2.4-4.8-5.84-5.13v-1.83h15.54l0,1.83c-4,.51-4.05,1-3.22,3.16,1.56,4.34,5.59,15.37,8,21.61,3.11-7.48,6.27-15.36,8-20,1.29-3.52.82-4.22-3.68-4.73v-1.83h12.73Z"/><path class="cls-1" d="M431.41,154.49v-1.83c4.23-.42,4.71-.7,4.71-5.27V126.45c0-4.59-.51-4.94-4.71-5.33v-1.83h16v1.83c-4.22.42-4.71.74-4.71,5.33v20.94c0,4.55.46,4.82,4.71,5.27v1.83Z"/><path class="cls-1" d="M497.31,145.41a75.54,75.54,0,0,1-3,8.52,47,47,0,0,1-9.94,1.38c-14,0-20.23-9.11-20.23-18,0-11.16,8.51-18.76,21.2-18.76a56.9,56.9,0,0,1,10.24,1.28c.26,2.51.63,6.25,1,8.75l-2,.38c-1.12-4-2.63-6.1-5.46-7.23a14.11,14.11,0,0,0-5.06-.86c-8.23,0-12.45,6.57-12.45,15.23,0,10.1,5.2,16.82,13.1,16.82,4.89,0,7.81-2.44,10.68-8.21Z"/><path class="cls-1" d="M543,145.5c-.29,1.44-1.78,7.44-2.29,9H513.2V152.7c5-.45,5.32-.8,5.32-5.31V126.45c0-4.68-.64-5-4.45-5.33v-1.83H531.3c5.49,0,7.45-.06,8.17-.11.07,1.11.31,5.42.53,8.6l-1.94.27a14.47,14.47,0,0,0-2.08-4.71c-1-1.33-1.83-1.68-4.77-1.68h-4.09c-1.92,0-2.1.14-2.1,1.88v11.55h5.55c3.4,0,3.84-.81,4.6-4.6h2v11.75h-2c-.81-4-1.25-4.58-4.65-4.58H525v9.83c0,3.75.48,4.61,3.62,4.66h4.26c3.13,0,3.85-.41,5-1.86a24,24,0,0,0,3.17-5.26Z"/><path class="cls-1" d="M578.25,128c-1-3.5-2.54-7.31-7.56-7.31a5.15,5.15,0,0,0-5.38,5.49c0,3.24,2.15,5.06,6.82,7.43,6,3,9.42,5.74,9.42,11,0,6.14-5.18,10.69-12.65,10.69a28.06,28.06,0,0,1-8.82-1.72c-.37-1.34-1.19-6.29-1.57-9l2-.47c1.08,3.49,3.89,9,9.31,9,3.51,0,5.65-2.29,5.65-5.77s-2-5.29-6.67-7.78c-5.66-3.06-9.16-5.73-9.16-11.15s4.29-9.9,12.06-9.9a38,38,0,0,1,7.54,1c.22,2,.54,4.58,1,8Z"/><polygon class="cls-2" points="88.59 34.21 88.59 0 45.56 24.84 75.19 41.95 88.59 34.21"/><polygon class="cls-3" points="29.63 68.25 75.19 41.95 45.56 24.84 0 51.15 29.63 68.25 29.63 68.25"/><polygon class="cls-1" points="101.99 41.95 131.62 24.84 88.59 0 88.59 34.21 101.99 41.95"/><polygon class="cls-4" points="147.55 68.25 147.55 68.25 177.18 51.15 131.62 24.84 101.99 41.95 147.55 68.25"/><polygon class="cls-5" points="29.63 136.34 0 153.44 88.59 204.59 88.59 170.38 29.63 136.34"/><polygon class="cls-2" points="88.59 170.38 88.59 204.59 177.18 153.44 147.55 136.34 88.59 170.38"/><polygon class="cls-3" points="147.55 136.34 147.55 136.34 177.18 153.44 177.18 100.83 147.55 117.94 147.55 136.34"/><polygon class="cls-1" points="147.55 117.94 177.18 100.83 147.55 83.73 147.55 117.94"/><polygon class="cls-5" points="147.55 68.25 147.55 83.73 177.18 100.83 177.18 51.15 147.55 68.25"/><polygon class="cls-1" points="29.63 136.34 29.63 117.94 0 100.83 0 153.44 29.63 136.34 29.63 136.34"/><polygon class="cls-4" points="29.63 83.73 0 100.83 29.63 117.94 29.63 83.73"/><polygon class="cls-2" points="29.63 68.25 0 51.15 0 100.83 29.63 83.73 29.63 68.25"/><polygon class="cls-6" points="101.99 41.95 88.59 34.21 75.19 41.95 29.63 68.25 29.63 68.25 29.63 83.73 29.63 117.94 29.63 136.34 29.63 136.34 88.59 170.38 147.55 136.34 147.55 136.34 147.55 117.94 147.55 83.73 147.55 68.25 147.55 68.25 101.99 41.95"/></g></g></svg>