<svg xmlns="http://www.w3.org/2000/svg" viewBox="0 0 572.87 204.59"><defs><style>.cls-1{fill:#fff;}</style></defs><g id="レイヤー_2" data-name="レイヤー 2"><g id="レイヤー_1-2" data-name="レイヤー 1"><path class="cls-1" d="M255.65,63.8a13.17,13.17,0,0,0-1.89-4.17c-1-1.26-1.63-1.52-4.07-1.52h-4.13c-1.56,0-1.73.12-1.73,1.66V70.45h5.43c3,0,3.37-.67,4.1-4H255V76.86h-1.7c-.56-3.3-1.15-4.1-4.05-4.1h-5.43v7.87c0,4.33.36,4.61,4.69,4.94v1.62H233.87V85.57c3.73-.32,4.17-.62,4.17-4.94V62.5c0-4.23-.45-4.55-4.17-4.87V56h15.9c4.19,0,6.32,0,7.11-.1,0,1.13.27,5,.51,7.64Z"/><path class="cls-1" d="M271.64,87.19V85.57c3.74-.37,4.17-.62,4.17-4.67V62.35c0-4.07-.45-4.38-4.17-4.72V56h14.14v1.62c-3.74.37-4.18.65-4.18,4.72V80.9c0,4,.41,4.27,4.18,4.67v1.62Z"/><path class="cls-1" d="M333.88,57.63c-3,.37-3.93.94-4.07,3.11-.11,1.76-.23,3.52-.23,7.8V87.69h-2.39L307,63.31V74.56c0,4.22.11,6.19.24,7.59.16,2.22,1.23,3.19,4.75,3.42v1.62H300.17V85.57c2.82-.24,4-1,4.26-3.25a72.24,72.24,0,0,0,.28-7.78V62.87a5.21,5.21,0,0,0-1-3.64c-.88-1.2-2-1.39-4.12-1.6V56h8.61l19,22.26V68.54c0-4.28-.06-6-.21-7.68-.14-2.1-1-3-5-3.23V56h11.85Z"/><path class="cls-1" d="M363,87.19V85.57c3.06-.42,3.19-.93,2.53-2.91-.53-1.59-1.37-3.83-2.19-6.14h-9.71c-.61,1.73-1.3,3.57-1.84,5.22-1,3.06-.05,3.44,3.8,3.83v1.62H344V85.57c3-.39,3.79-.78,5.44-4.92l10-24.93,2-.39c3.05,8.3,6.33,17,9.42,25.14,1.69,4.36,2.12,4.71,5.34,5.1v1.62Zm-4.42-23.86c-1.44,3.69-2.88,7.31-4.16,10.91h8.1Z"/><path class="cls-1" d="M421.07,57.63c-3,.37-3.93.94-4.07,3.11-.11,1.76-.23,3.52-.23,7.8V87.69h-2.39L394.19,63.31V74.56c0,4.22.11,6.19.24,7.59.16,2.22,1.23,3.19,4.75,3.42v1.62H387.36V85.57c2.82-.24,4-1,4.26-3.25a73.15,73.15,0,0,0,.27-7.78V62.87a5.21,5.21,0,0,0-1-3.64c-.88-1.2-2-1.39-4.12-1.6V56h8.61l19,22.26V68.54c0-4.28-.07-6-.22-7.68-.14-2.1-1-3-5-3.23V56h11.86Z"/><path class="cls-1" d="M464.12,79.14a65.69,65.69,0,0,1-2.67,7.56,42,42,0,0,1-8.81,1.21c-12.4,0-17.92-8.06-17.92-16,0-9.88,7.54-16.62,18.78-16.62a50.07,50.07,0,0,1,9.08,1.14c.22,2.22.55,5.53.9,7.75l-1.77.34c-1-3.56-2.33-5.41-4.84-6.41a12.26,12.26,0,0,0-4.47-.76c-7.29,0-11,5.82-11,13.49,0,9,4.61,14.9,11.6,14.9,4.34,0,6.92-2.16,9.47-7.28Z"/><path class="cls-1" d="M478.74,87.19V85.57c3.75-.37,4.17-.62,4.17-4.67V62.35c0-4.07-.45-4.38-4.17-4.72V56h14.14v1.62c-3.74.37-4.18.65-4.18,4.72V80.9c0,4,.42,4.27,4.18,4.67v1.62Z"/><path class="cls-1" d="M523.18,87.19V85.57c3.07-.42,3.2-.93,2.53-2.91-.53-1.59-1.36-3.83-2.19-6.14h-9.71c-.6,1.73-1.3,3.57-1.84,5.22-1,3.06-.05,3.44,3.8,3.83v1.62H504.18V85.57c3-.39,3.79-.78,5.44-4.92l10-24.93,2-.39c3,8.3,6.33,17,9.42,25.14,1.69,4.36,2.12,4.71,5.35,5.1v1.62Zm-4.41-23.86c-1.45,3.69-2.89,7.31-4.17,10.91h8.1Z"/><path class="cls-1" d="M572.87,78.92c-.35,1.86-1.72,6.91-2.17,8.27H547.41V85.57c4.28-.34,4.67-.64,4.67-4.69V62.33c0-4-.49-4.38-4.17-4.7V56h14.23v1.62c-3.77.35-4.27.64-4.27,4.7V81.27c0,2.73.2,3.75,2.87,3.8.08,0,2.72.05,2.94.05,2.64,0,3.36-.48,4.5-1.74a18.54,18.54,0,0,0,3-5Z"/><path class="cls-1" d="M275.36,125.05c-.91-3.11-2.25-6.48-6.7-6.48a4.56,4.56,0,0,0-4.76,4.86c0,2.88,1.9,4.49,6,6.58,5.34,2.7,8.34,5.1,8.34,9.78,0,5.44-4.59,9.47-11.21,9.47a25,25,0,0,1-7.81-1.52c-.32-1.19-1.05-5.58-1.39-8l1.74-.41c.95,3.08,3.44,7.94,8.25,7.94,3.11,0,5-2,5-5.11s-1.81-4.68-5.91-6.89c-5-2.7-8.12-5.07-8.12-9.88s3.8-8.76,10.69-8.76a33.56,33.56,0,0,1,6.68.88c.2,1.76.48,4,.86,7.11Z"/><path class="cls-1" d="M318.84,140.56c-.26,1.28-1.58,6.6-2,8H292.46v-1.6c4.4-.39,4.71-.7,4.71-4.7V123.69c0-4.14-.56-4.41-3.94-4.72v-1.62H308.5c4.86,0,6.6,0,7.23-.1.06,1,.28,4.8.47,7.62l-1.72.24a12.67,12.67,0,0,0-1.84-4.17c-.84-1.18-1.62-1.49-4.23-1.49h-3.62c-1.7,0-1.86.12-1.86,1.67v10.22h4.92c3,0,3.4-.71,4.07-4.07h1.74v10.41h-1.74c-.72-3.51-1.1-4.06-4.12-4.06h-4.87v8.71c0,3.33.43,4.08,3.21,4.13h3.77c2.77,0,3.41-.37,4.47-1.65a21.55,21.55,0,0,0,2.81-4.66Z"/><path class="cls-1" d="M362.17,148.86c-.4,0-1,0-1.55-.07-5.19-.27-7-1.43-8.67-3.78a96.24,96.24,0,0,1-5-8.26c-.81-1.38-1.46-1.67-3.32-1.67l-1.21,0v7.19c0,4,.5,4.26,4.18,4.67v1.63h-14v-1.63c3.77-.4,4.17-.71,4.17-4.67V123.6c0-3.89-.5-4.29-4.17-4.63v-1.62h13.33c4,0,6.42.46,8.33,1.76a7.25,7.25,0,0,1,3.24,6.36c0,4.22-2.77,6.59-6.07,7.94.77,1.46,2.71,4.61,4.15,6.8a38,38,0,0,0,3.7,5,6.24,6.24,0,0,0,3.19,2.15ZM344.09,133.2c2.21,0,3.8-.35,4.91-1.3a6.77,6.77,0,0,0,2.38-5.71c0-5.1-3.09-6.94-6.13-6.94a3.71,3.71,0,0,0-2.33.47c-.36.31-.48.85-.48,1.91V133.2Z"/><path class="cls-1" d="M403.9,119c-3.19.37-4.1.81-5.88,5.28-1.43,3.51-7,16.87-10.09,24.82h-2.27c-1.86-5.14-7.36-19.77-9.63-25.56-1.44-3.58-2.12-4.25-5.17-4.54v-1.62h13.77l0,1.62c-3.52.45-3.59.87-2.86,2.8,1.39,3.85,5,13.61,7.07,19.15,2.76-6.63,5.56-13.61,7.07-17.75,1.14-3.13.72-3.75-3.27-4.2v-1.62H403.9Z"/><path class="cls-1" d="M414.79,148.54v-1.63c3.75-.37,4.17-.62,4.17-4.67V123.69c0-4.06-.45-4.38-4.17-4.72v-1.62h14.14V119c-3.74.37-4.18.66-4.18,4.72v18.55c0,4,.42,4.27,4.18,4.67v1.63Z"/><path class="cls-1" d="M473.16,140.48A67,67,0,0,1,470.5,148a42,42,0,0,1-8.81,1.22c-12.41,0-17.92-8.07-17.92-16,0-9.88,7.53-16.61,18.78-16.61a51.28,51.28,0,0,1,9.07,1.13c.22,2.22.55,5.54.91,7.75l-1.77.34c-1-3.56-2.33-5.4-4.84-6.41a12.54,12.54,0,0,0-4.48-.76c-7.29,0-11,5.83-11,13.49,0,8.95,4.61,14.9,11.6,14.9,4.34,0,6.92-2.16,9.47-7.27Z"/><path class="cls-1" d="M513.63,140.56c-.27,1.28-1.59,6.6-2,8H487.24v-1.6c4.4-.39,4.71-.7,4.71-4.7V123.69c0-4.14-.56-4.41-3.94-4.72v-1.62h15.27c4.86,0,6.6,0,7.24-.1.05,1,.27,4.8.47,7.62l-1.73.24a12.67,12.67,0,0,0-1.84-4.17c-.83-1.18-1.62-1.49-4.22-1.49h-3.63c-1.7,0-1.86.12-1.86,1.67v10.22h4.93c3,0,3.39-.71,4.07-4.07h1.73v10.41h-1.73c-.72-3.51-1.11-4.06-4.12-4.06h-4.88v8.71c0,3.33.43,4.08,3.21,4.13h3.78c2.77,0,3.4-.37,4.46-1.65a21.16,21.16,0,0,0,2.81-4.66Z"/><path class="cls-1" d="M544.87,125.05c-.91-3.11-2.25-6.48-6.7-6.48a4.56,4.56,0,0,0-4.76,4.86c0,2.88,1.9,4.49,6,6.58,5.34,2.7,8.34,5.1,8.34,9.78,0,5.44-4.59,9.47-11.21,9.47a25,25,0,0,1-7.81-1.52c-.32-1.19-1-5.58-1.39-8l1.74-.41c1,3.08,3.45,7.94,8.25,7.94,3.11,0,5-2,5-5.11s-1.81-4.68-5.91-6.89c-5-2.7-8.12-5.07-8.12-9.88s3.8-8.76,10.69-8.76a33.56,33.56,0,0,1,6.68.88c.2,1.76.48,4,.86,7.11Z"/><path class="cls-1" d="M131.62,24.84,88.59,0l-43,24.84L0,51.15V153.44l88.59,51.15,88.59-51.15V51.15Zm15.93,111.5-59,34-59-34V68.25l59-34,59,34Z"/></g></g></svg>