<svg xmlns="http://www.w3.org/2000/svg" viewBox="0 0 262.42 317.97"><defs><style>.cls-1{fill:#fff;}</style></defs><g id="レイヤー_2" data-name="レイヤー 2"><g id="レイヤー_1-2" data-name="レイヤー 1"><path class="cls-1" d="M16.86,251.81a10.33,10.33,0,0,0-1.47-3.23c-.75-1-1.26-1.17-3.15-1.17H9c-1.2,0-1.33.09-1.33,1.29V257h4.2c2.35,0,2.61-.52,3.17-3.12h1.28v8.08H15c-.43-2.55-.89-3.17-3.13-3.17H7.71v6.09c0,3.35.28,3.57,3.63,3.82v1.26H0v-1.26c2.88-.24,3.22-.48,3.22-3.82v-14c0-3.28-.34-3.52-3.22-3.77v-1.26H12.31c3.24,0,4.89,0,5.5-.07,0,.87.21,3.86.39,5.91Z"/><path class="cls-1" d="M29.23,269.92v-1.26c2.9-.28,3.23-.48,3.23-3.61V250.69c0-3.15-.35-3.39-3.23-3.65v-1.26h11V247c-2.89.28-3.23.5-3.23,3.65v14.36c0,3.12.31,3.3,3.23,3.61v1.26Z"/><path class="cls-1" d="M77.41,247c-2.3.28-3,.72-3.14,2.41-.09,1.36-.18,2.72-.18,6v14.83H72.24L56.61,251.43v8.71c0,3.27.08,4.8.19,5.88.12,1.72.94,2.47,3.67,2.64v1.26H51.32v-1.26c2.19-.18,3.1-.74,3.3-2.51a57,57,0,0,0,.21-6v-9a4,4,0,0,0-.77-2.81c-.68-.93-1.53-1.08-3.19-1.24v-1.26h6.66L72.25,263v-7.54c0-3.31,0-4.66-.17-5.94-.11-1.63-.8-2.32-3.84-2.5v-1.26h9.17Z"/><path class="cls-1" d="M100,269.92v-1.26c2.37-.32,2.47-.71,2-2.25-.42-1.22-1.06-3-1.7-4.75H92.7c-.47,1.34-1,2.76-1.42,4-.8,2.37,0,2.67,2.94,3v1.26h-9v-1.26c2.34-.29,2.93-.6,4.21-3.8l7.72-19.3,1.57-.3c2.36,6.42,4.9,13.18,7.29,19.46,1.31,3.38,1.64,3.65,4.14,3.94v1.26Zm-3.42-18.47c-1.12,2.86-2.23,5.66-3.23,8.45h6.27Z"/><path class="cls-1" d="M144.91,247c-2.31.28-3,.72-3.15,2.41-.09,1.36-.18,2.72-.18,6v14.83h-1.85L124.1,251.43v8.71c0,3.27.09,4.8.19,5.88.12,1.72.95,2.47,3.67,2.64v1.26h-9.14v-1.26c2.18-.18,3.09-.74,3.29-2.51a57,57,0,0,0,.21-6v-9a4,4,0,0,0-.76-2.81c-.69-.93-1.54-1.08-3.19-1.24v-1.26H125L139.74,263v-7.54c0-3.31-.05-4.66-.17-5.94-.11-1.63-.8-2.32-3.84-2.5v-1.26h9.18Z"/><path class="cls-1" d="M178.24,263.69a53.17,53.17,0,0,1-2.07,5.85,32.81,32.81,0,0,1-6.82.94c-9.6,0-13.87-6.24-13.87-12.36,0-7.65,5.83-12.86,14.54-12.86a38.81,38.81,0,0,1,7,.88c.17,1.72.43,4.28.7,6l-1.37.26c-.77-2.76-1.8-4.18-3.74-5a9.61,9.61,0,0,0-3.47-.59c-5.64,0-8.54,4.51-8.54,10.44,0,6.93,3.57,11.54,9,11.54,3.36,0,5.36-1.68,7.33-5.63Z"/><path class="cls-1" d="M189.56,269.92v-1.26c2.89-.28,3.22-.48,3.22-3.61V250.69c0-3.15-.35-3.39-3.22-3.65v-1.26H200.5V247c-2.89.28-3.23.5-3.23,3.65v14.36c0,3.12.31,3.3,3.23,3.61v1.26Z"/><path class="cls-1" d="M224,269.92v-1.26c2.37-.32,2.47-.71,1.95-2.25-.41-1.22-1-3-1.69-4.75H216.7c-.47,1.34-1,2.76-1.42,4-.8,2.37,0,2.67,2.94,3v1.26h-9v-1.26c2.34-.29,2.93-.6,4.21-3.8l7.71-19.3,1.58-.3c2.36,6.42,4.9,13.18,7.29,19.46,1.31,3.38,1.64,3.65,4.14,3.94v1.26Zm-3.42-18.47c-1.12,2.86-2.24,5.66-3.23,8.45h6.27Z"/><path class="cls-1" d="M262.42,263.52c-.27,1.44-1.34,5.35-1.68,6.4h-18v-1.26c3.31-.26,3.61-.49,3.61-3.62V250.68c0-3.14-.38-3.39-3.22-3.64v-1.26h11V247c-2.92.27-3.3.49-3.3,3.64v14.65c0,2.12.15,2.91,2.22,2.95.06,0,2.1,0,2.28,0,2,0,2.59-.37,3.48-1.35a14.51,14.51,0,0,0,2.31-3.85Z"/><path class="cls-1" d="M32.11,299.23c-.7-2.41-1.74-5-5.18-5A3.53,3.53,0,0,0,23.24,298c0,2.22,1.47,3.47,4.68,5.09,4.13,2.09,6.45,3.94,6.45,7.57,0,4.21-3.55,7.33-8.67,7.33a19.34,19.34,0,0,1-6.05-1.18c-.25-.92-.81-4.32-1.08-6.15l1.35-.32c.74,2.39,2.67,6.15,6.39,6.15a3.65,3.65,0,0,0,3.87-4c0-2.4-1.4-3.62-4.58-5.33-3.87-2.1-6.28-3.93-6.28-7.65s2.94-6.78,8.28-6.78a25.31,25.31,0,0,1,5.16.68c.16,1.36.37,3.14.67,5.5Z"/><path class="cls-1" d="M65.77,311.24c-.2,1-1.22,5.1-1.57,6.17H45.35v-1.23c3.41-.31,3.65-.55,3.65-3.65V298.18c0-3.21-.44-3.42-3-3.66v-1.26H57.77c3.76,0,5.11,0,5.6-.07,0,.76.21,3.72.36,5.9l-1.33.19A10.09,10.09,0,0,0,61,296c-.65-.91-1.25-1.14-3.27-1.14H54.9c-1.32,0-1.45.09-1.45,1.28v7.92h3.82c2.32,0,2.63-.56,3.15-3.15h1.34V309H60.42c-.56-2.73-.86-3.15-3.19-3.15H53.45v6.74c0,2.58.34,3.16,2.49,3.2h2.92c2.15,0,2.64-.28,3.46-1.27a16.4,16.4,0,0,0,2.17-3.62Z"/><path class="cls-1" d="M99.31,317.66c-.31,0-.74,0-1.2-.05-4-.21-5.42-1.11-6.71-2.93-1.45-2-2.62-4.28-3.86-6.4C86.92,307.22,86.41,307,85,307L84,307v5.56c0,3.07.39,3.3,3.24,3.62v1.26H76.42v-1.26c2.91-.31,3.23-.55,3.23-3.62V298.1c0-3-.39-3.31-3.23-3.58v-1.26H86.73c3.11,0,5,.36,6.45,1.37a5.62,5.62,0,0,1,2.51,4.92c0,3.27-2.14,5.11-4.7,6.15.6,1.13,2.1,3.57,3.22,5.26a29.72,29.72,0,0,0,2.86,3.85,4.79,4.79,0,0,0,2.47,1.66Zm-14-12.12a5.62,5.62,0,0,0,3.8-1A5.25,5.25,0,0,0,91,300.11c0-3.95-2.4-5.37-4.75-5.37a2.79,2.79,0,0,0-1.81.37c-.28.23-.37.65-.37,1.47v9Z"/><path class="cls-1" d="M131.61,294.52c-2.46.29-3.16.63-4.55,4.09-1.1,2.71-5.38,13.06-7.8,19.21H117.5c-1.44-4-5.7-15.3-7.45-19.78-1.12-2.78-1.65-3.29-4-3.52v-1.26H116.7l0,1.26c-2.73.35-2.78.67-2.21,2.17,1.07,3,3.83,10.54,5.47,14.82,2.14-5.13,4.3-10.53,5.47-13.74.89-2.42.56-2.9-2.53-3.25v-1.26h8.73Z"/><path class="cls-1" d="M140.05,317.41v-1.26c2.9-.29,3.23-.48,3.23-3.62V298.18c0-3.15-.35-3.39-3.23-3.66v-1.26H151v1.26c-2.89.29-3.23.51-3.23,3.66v14.35c0,3.13.32,3.31,3.23,3.62v1.26Z"/><path class="cls-1" d="M185.24,311.18a52.22,52.22,0,0,1-2.07,5.84,32,32,0,0,1-6.82,1c-9.6,0-13.87-6.25-13.87-12.36,0-7.65,5.83-12.86,14.54-12.86a39.9,39.9,0,0,1,7,.87c.17,1.72.43,4.29.7,6l-1.37.26c-.76-2.75-1.8-4.18-3.74-5a9.83,9.83,0,0,0-3.47-.58c-5.64,0-8.53,4.5-8.53,10.44,0,6.93,3.56,11.53,9,11.53,3.36,0,5.36-1.67,7.33-5.63Z"/><path class="cls-1" d="M216.56,311.24c-.21,1-1.23,5.1-1.57,6.17H196.14v-1.23c3.4-.31,3.64-.55,3.64-3.65V298.18c0-3.21-.43-3.42-3.05-3.66v-1.26h11.82c3.76,0,5.11,0,5.6-.07,0,.76.21,3.72.36,5.9l-1.33.19a9.88,9.88,0,0,0-1.43-3.24c-.64-.91-1.25-1.14-3.27-1.14h-2.8c-1.32,0-1.44.09-1.44,1.28v7.92h3.81c2.33,0,2.63-.56,3.15-3.15h1.34V309H211.2c-.56-2.73-.85-3.15-3.19-3.15h-3.77v6.74c0,2.58.33,3.16,2.48,3.2h2.92c2.15,0,2.64-.28,3.46-1.27a16.83,16.83,0,0,0,2.18-3.62Z"/><path class="cls-1" d="M240.74,299.23c-.7-2.41-1.74-5-5.18-5a3.53,3.53,0,0,0-3.69,3.77c0,2.22,1.47,3.47,4.68,5.09,4.13,2.09,6.45,3.94,6.45,7.57,0,4.21-3.55,7.33-8.67,7.33a19.34,19.34,0,0,1-6.05-1.18c-.25-.92-.82-4.32-1.08-6.15l1.35-.32c.74,2.39,2.67,6.15,6.39,6.15a3.65,3.65,0,0,0,3.87-4c0-2.4-1.4-3.62-4.58-5.33-3.87-2.1-6.28-3.93-6.28-7.65s2.94-6.78,8.28-6.78a25.31,25.31,0,0,1,5.16.68c.16,1.36.37,3.14.67,5.5Z"/><path class="cls-1" d="M178,24.84,134.93,0l-43,24.84L46.34,51.15V153.44l88.59,51.15,88.59-51.15V51.15Zm15.94,111.5-59,34-59-34V68.25l59-34,59,34Z"/></g></g></svg>