<svg xmlns="http://www.w3.org/2000/svg" viewBox="0 0 489.6 204.59"><defs><style>.cls-1{fill:#5d3b00;}.cls-2{fill:#946c2b;}.cls-3{fill:#dbcba6;}.cls-4{fill:#d0b174;}.cls-5{fill:#b09538;}.cls-6{fill:none;}</style></defs><g id="レイヤー_2" data-name="レイヤー 2"><g id="レイヤー_1-2" data-name="レイヤー 1"><path class="cls-1" d="M244,72.5a10.29,10.29,0,0,0-1.47-3.24c-.75-1-1.26-1.17-3.15-1.17h-3.2c-1.2,0-1.33.09-1.33,1.29v8.26h4.2c2.35,0,2.61-.52,3.17-3.11h1.28V82.6h-1.31c-.44-2.55-.9-3.17-3.14-3.17h-4.2v6.09c0,3.36.28,3.58,3.63,3.83V90.6H227.18V89.35c2.88-.25,3.23-.49,3.23-3.83v-14c0-3.28-.35-3.52-3.23-3.77V66.46h12.31c3.24,0,4.89,0,5.5-.07,0,.87.21,3.86.4,5.91Z"/><path class="cls-1" d="M256.42,90.6V89.35c2.89-.29,3.22-.49,3.22-3.62V71.37c0-3.15-.35-3.39-3.22-3.65V66.46h10.94v1.26c-2.89.28-3.23.5-3.23,3.65V85.73c0,3.12.32,3.3,3.23,3.62V90.6Z"/><path class="cls-1" d="M304.59,67.72c-2.3.28-3,.73-3.14,2.41-.09,1.36-.18,2.73-.18,6V91h-1.85L283.79,72.12v8.7c0,3.27.08,4.8.19,5.88.12,1.72.95,2.47,3.67,2.65V90.6H278.5V89.35c2.19-.19,3.1-.75,3.3-2.52a56.89,56.89,0,0,0,.21-6v-9a4,4,0,0,0-.77-2.81c-.68-.93-1.53-1.08-3.18-1.24V66.46h6.66L299.43,83.7V76.16c0-3.3-.05-4.66-.17-5.94-.11-1.63-.8-2.31-3.84-2.5V66.46h9.17Z"/><path class="cls-1" d="M327.14,90.6V89.35c2.37-.33,2.47-.72,2-2.25-.42-1.23-1.06-3-1.7-4.75h-7.51c-.48,1.33-1,2.75-1.43,4-.8,2.36,0,2.66,2.94,3V90.6h-9V89.35c2.34-.3,2.93-.61,4.21-3.81l7.72-19.3,1.57-.3c2.36,6.43,4.9,13.18,7.29,19.46,1.31,3.38,1.65,3.65,4.14,3.95V90.6Zm-3.42-18.47c-1.12,2.86-2.23,5.66-3.23,8.45h6.27Z"/><path class="cls-1" d="M372.09,67.72c-2.31.28-3,.73-3.15,2.41-.09,1.36-.18,2.73-.18,6V91h-1.85L351.28,72.12v8.7c0,3.27.09,4.8.19,5.88.12,1.72.95,2.47,3.67,2.65V90.6H346V89.35c2.18-.19,3.09-.75,3.29-2.52a56.89,56.89,0,0,0,.21-6v-9a4,4,0,0,0-.76-2.81c-.69-.93-1.54-1.08-3.19-1.24V66.46h6.66L366.92,83.7V76.16c0-3.3-.05-4.66-.17-5.94-.11-1.63-.79-2.31-3.84-2.5V66.46h9.18Z"/><path class="cls-1" d="M405.42,84.37a53.17,53.17,0,0,1-2.07,5.85,32.81,32.81,0,0,1-6.82.94c-9.6,0-13.87-6.24-13.87-12.35,0-7.65,5.83-12.87,14.54-12.87a38.67,38.67,0,0,1,7,.88c.17,1.72.43,4.29.7,6l-1.37.26c-.76-2.75-1.8-4.18-3.74-5a9.61,9.61,0,0,0-3.47-.59c-5.64,0-8.53,4.51-8.53,10.45,0,6.92,3.56,11.53,9,11.53,3.36,0,5.36-1.67,7.33-5.63Z"/><path class="cls-1" d="M416.74,90.6V89.35c2.89-.29,3.22-.49,3.22-3.62V71.37c0-3.15-.35-3.39-3.22-3.65V66.46h10.94v1.26c-2.89.28-3.23.5-3.23,3.65V85.73c0,3.12.32,3.3,3.23,3.62V90.6Z"/><path class="cls-1" d="M451.14,90.6V89.35c2.37-.33,2.47-.72,1.95-2.25-.41-1.23-1-3-1.69-4.75h-7.52c-.47,1.33-1,2.75-1.42,4-.8,2.36,0,2.66,2.94,3V90.6h-9V89.35c2.34-.3,2.93-.61,4.21-3.81l7.71-19.3,1.58-.3c2.36,6.43,4.9,13.18,7.29,19.46,1.31,3.38,1.64,3.65,4.14,3.95V90.6Zm-3.42-18.47c-1.12,2.86-2.23,5.66-3.23,8.45h6.27Z"/><path class="cls-1" d="M489.6,84.2c-.27,1.44-1.34,5.35-1.68,6.4h-18V89.35c3.32-.26,3.61-.5,3.61-3.63V71.36c0-3.14-.37-3.39-3.22-3.64V66.46h11v1.26c-2.92.27-3.3.49-3.3,3.64V86c0,2.12.15,2.9,2.22,2.94.06,0,2.1,0,2.28,0,2,0,2.59-.37,3.48-1.35a14.51,14.51,0,0,0,2.31-3.85Z"/><path class="cls-1" d="M259.29,119.91c-.7-2.4-1.74-5-5.18-5a3.53,3.53,0,0,0-3.69,3.76c0,2.22,1.47,3.47,4.68,5.09,4.13,2.09,6.45,3.94,6.45,7.57,0,4.21-3.55,7.33-8.67,7.33a19.34,19.34,0,0,1-6-1.18c-.25-.92-.81-4.31-1.08-6.15l1.35-.32c.74,2.39,2.67,6.15,6.39,6.15a3.64,3.64,0,0,0,3.87-4c0-2.41-1.4-3.63-4.58-5.34-3.87-2.09-6.28-3.92-6.28-7.64s2.94-6.79,8.28-6.79a26.06,26.06,0,0,1,5.16.68c.16,1.36.37,3.14.67,5.5Z"/><path class="cls-1" d="M293,131.92c-.21,1-1.23,5.11-1.58,6.17H272.53v-1.23c3.41-.31,3.65-.55,3.65-3.64V118.86c0-3.21-.44-3.42-3.05-3.66V114H285c3.76,0,5.11,0,5.6-.08,0,.77.21,3.72.36,5.9l-1.33.19a9.93,9.93,0,0,0-1.43-3.23c-.64-.91-1.25-1.15-3.27-1.15h-2.8c-1.32,0-1.44.09-1.44,1.28v7.92h3.81c2.32,0,2.63-.55,3.15-3.15h1.34v8.06H287.6c-.56-2.72-.86-3.14-3.19-3.14h-3.77v6.74c0,2.57.33,3.16,2.48,3.2H286c2.15,0,2.64-.29,3.46-1.28a16.33,16.33,0,0,0,2.17-3.61Z"/><path class="cls-1" d="M326.49,138.34c-.31,0-.74,0-1.2-.05-4-.21-5.42-1.11-6.71-2.93a74.14,74.14,0,0,1-3.85-6.39c-.63-1.07-1.13-1.29-2.57-1.29l-.93,0v5.57c0,3.06.38,3.29,3.23,3.61v1.26H303.6v-1.26c2.91-.31,3.23-.55,3.23-3.61V118.78c0-3-.39-3.31-3.23-3.58V114h10.31c3.11,0,5,.36,6.45,1.36a5.62,5.62,0,0,1,2.51,4.92c0,3.27-2.14,5.11-4.69,6.15.59,1.13,2.09,3.57,3.21,5.26a30.77,30.77,0,0,0,2.86,3.86,4.85,4.85,0,0,0,2.47,1.66Zm-14-12.12a5.68,5.68,0,0,0,3.8-1,5.27,5.27,0,0,0,1.85-4.43c0-4-2.4-5.37-4.75-5.37a2.86,2.86,0,0,0-1.81.37c-.28.23-.36.65-.36,1.48v9Z"/><path class="cls-1" d="M358.8,115.2c-2.47.29-3.17.63-4.56,4.09-1.1,2.72-5.38,13.06-7.8,19.21h-1.76c-1.44-4-5.7-15.3-7.45-19.78-1.12-2.78-1.65-3.29-4-3.52V114h10.66l0,1.25c-2.73.35-2.78.67-2.21,2.17,1.07,3,3.83,10.54,5.47,14.82,2.14-5.13,4.3-10.53,5.47-13.74.89-2.42.56-2.9-2.53-3.25V114h8.74Z"/><path class="cls-1" d="M367.23,138.09v-1.26c2.9-.28,3.23-.48,3.23-3.61V118.86c0-3.15-.35-3.39-3.23-3.66V114h10.94v1.25c-2.89.29-3.23.51-3.23,3.66v14.36c0,3.12.32,3.3,3.23,3.61v1.26Z"/><path class="cls-1" d="M412.42,131.86a53.17,53.17,0,0,1-2.07,5.85,32.81,32.81,0,0,1-6.82.94c-9.6,0-13.87-6.24-13.87-12.36,0-7.65,5.83-12.86,14.54-12.86a38.67,38.67,0,0,1,7,.88c.17,1.72.43,4.28.7,6l-1.37.26c-.76-2.76-1.8-4.18-3.74-5a9.61,9.61,0,0,0-3.47-.59c-5.64,0-8.53,4.51-8.53,10.44,0,6.93,3.56,11.54,9,11.54,3.35,0,5.35-1.68,7.32-5.63Z"/><path class="cls-1" d="M443.74,131.92c-.2,1-1.23,5.11-1.57,6.17H423.32v-1.23c3.4-.31,3.64-.55,3.64-3.64V118.86c0-3.21-.43-3.42-3-3.66V114h11.82c3.76,0,5.11,0,5.6-.08.05.77.21,3.72.36,5.9l-1.33.19a9.72,9.72,0,0,0-1.43-3.23c-.64-.91-1.25-1.15-3.26-1.15h-2.81c-1.32,0-1.44.09-1.44,1.28v7.92h3.81c2.33,0,2.63-.55,3.15-3.15h1.34v8.06h-1.34c-.56-2.72-.85-3.14-3.19-3.14h-3.77v6.74c0,2.57.33,3.16,2.48,3.2h2.92c2.15,0,2.64-.29,3.46-1.28a16.75,16.75,0,0,0,2.18-3.61Z"/><path class="cls-1" d="M467.92,119.91c-.7-2.4-1.74-5-5.18-5a3.53,3.53,0,0,0-3.69,3.76c0,2.22,1.47,3.47,4.68,5.09,4.13,2.09,6.45,3.94,6.45,7.57,0,4.21-3.55,7.33-8.67,7.33a19.34,19.34,0,0,1-6.05-1.18c-.25-.92-.81-4.31-1.08-6.15l1.35-.32c.74,2.39,2.67,6.15,6.39,6.15a3.64,3.64,0,0,0,3.87-4c0-2.41-1.4-3.63-4.58-5.34-3.87-2.09-6.28-3.92-6.28-7.64s2.94-6.79,8.28-6.79a26.06,26.06,0,0,1,5.16.68c.16,1.36.37,3.14.67,5.5Z"/><polygon class="cls-2" points="88.59 34.21 88.59 0 45.56 24.84 75.19 41.95 88.59 34.21"/><polygon class="cls-3" points="29.63 68.25 75.19 41.95 45.56 24.84 0 51.15 29.63 68.25 29.63 68.25"/><polygon class="cls-1" points="101.99 41.95 131.62 24.84 88.59 0 88.59 34.21 101.99 41.95"/><polygon class="cls-4" points="147.55 68.25 147.55 68.25 177.18 51.15 131.62 24.84 101.99 41.95 147.55 68.25"/><polygon class="cls-5" points="29.63 136.34 0 153.44 88.59 204.59 88.59 170.38 29.63 136.34"/><polygon class="cls-2" points="88.59 170.38 88.59 204.59 177.18 153.44 147.55 136.34 88.59 170.38"/><polygon class="cls-3" points="147.55 136.34 147.55 136.34 177.18 153.44 177.18 100.83 147.55 117.94 147.55 136.34"/><polygon class="cls-1" points="147.55 117.94 177.18 100.83 147.55 83.73 147.55 117.94"/><polygon class="cls-5" points="147.55 68.25 147.55 83.73 177.18 100.83 177.18 51.15 147.55 68.25"/><polygon class="cls-1" points="29.63 136.34 29.63 117.94 0 100.83 0 153.44 29.63 136.34 29.63 136.34"/><polygon class="cls-4" points="29.63 83.73 0 100.83 29.63 117.94 29.63 83.73"/><polygon class="cls-2" points="29.63 68.25 0 51.15 0 100.83 29.63 83.73 29.63 68.25"/><polygon class="cls-6" points="101.99 41.95 88.59 34.21 75.19 41.95 29.63 68.25 29.63 68.25 29.63 83.73 29.63 117.94 29.63 136.34 29.63 136.34 88.59 170.38 147.55 136.34 147.55 136.34 147.55 117.94 147.55 83.73 147.55 68.25 147.55 68.25 101.99 41.95"/></g></g></svg>